HIERARCHY
ROOT Hips
{
	OFFSET 0.000000 91.384300 0.000000
	CHANNELS 6 Xposition Yposition Zposition Xrotation Yrotation Zrotation
	JOINT LeftUpLeg
	{
		OFFSET 9.077000 -4.133000 1.997000
		CHANNELS 3 Xrotation Yrotation Zrotation
		JOINT LeftLeg
		{
			OFFSET -0.837700 -38.099998 -0.644600
			CHANNELS 3 Xrotation Yrotation Zrotation
			JOINT LeftFoot
			{
				OFFSET -2.286000 -39.700100 -5.944000
				CHANNELS 3 Xrotation Yrotation Zrotation
				JOINT LeftToeBase
				{
					OFFSET 0.765600 -9.713000 12.380000
					CHANNELS 3 Xrotation Yrotation Zrotation
					End Site
					{
						OFFSET 0 0 0
					}
				}
			}
		}
	}
	JOINT RightUpLeg
	{
		OFFSET -9.077000 -4.133000 1.997000
		CHANNELS 3 Xrotation Yrotation Zrotation
		JOINT RightLeg
		{
			OFFSET 0.838700 -38.100201 -0.635000
			CHANNELS 3 Xrotation Yrotation Zrotation
			JOINT RightFoot
			{
				OFFSET 2.286000 -39.700001 -5.944000
				CHANNELS 3 Xrotation Yrotation Zrotation
				JOINT RightToeBase
				{
					OFFSET -0.765600 -9.713000 12.380000
					CHANNELS 3 Xrotation Yrotation Zrotation
					End Site
					{
						OFFSET 0 0 0
					}
				}
			}
		}
	}
	JOINT Spine
	{
		OFFSET 0.000000 4.991000 -1.131000
		CHANNELS 3 Xrotation Yrotation Zrotation
		JOINT Spine1
		{
			OFFSET 0.000000 5.519000 1.053000
			CHANNELS 3 Xrotation Yrotation Zrotation
			JOINT Spine2
			{
				OFFSET 0.000000 5.886000 0.113000
				CHANNELS 3 Xrotation Yrotation Zrotation
				JOINT Spine3
				{
					OFFSET 0.000000 6.393000 -0.435800
					CHANNELS 3 Xrotation Yrotation Zrotation
					JOINT Spine4
					{
						OFFSET 0.000000 7.474000 -1.480000
						CHANNELS 3 Xrotation Yrotation Zrotation
						JOINT Spine5
						{
							OFFSET 0.000000 9.333000 -0.898600
							CHANNELS 3 Xrotation Yrotation Zrotation
							JOINT Spine6
							{
								OFFSET 0.000000 10.370000 1.550000
								CHANNELS 3 Xrotation Yrotation Zrotation
								JOINT LeftShoulder
								{
									OFFSET 1.212000 -7.475000 7.403000
									CHANNELS 3 Xrotation Yrotation Zrotation
									JOINT LeftArm
									{
										OFFSET 12.730000 3.193000 -3.212000
										CHANNELS 3 Xrotation Yrotation Zrotation
										JOINT LeftForeArm
										{
											OFFSET 28.700001 0.058700 0.134700
											CHANNELS 3 Xrotation Yrotation Zrotation
											JOINT LeftHand
											{
												OFFSET 23.809999 0.048800 0.111700
												CHANNELS 3 Xrotation Yrotation Zrotation
												JOINT LeftHandThumb1
												{
													OFFSET 0.342600 -0.877100 1.299200
													CHANNELS 3 Xrotation Yrotation Zrotation
													JOINT LeftHandThumb2
													{
														OFFSET 3.552400 0.035400 4.233400
														CHANNELS 3 Xrotation Yrotation Zrotation
														JOINT LeftHandThumb3
														{
															OFFSET 2.296600 0.022900 2.736900
															CHANNELS 3 Xrotation Yrotation Zrotation
															End Site
															{
																OFFSET 0 0 0
															}
														}
													}
												}
												JOINT LeftHandIndex1
												{
													OFFSET 8.341500 -0.231800 2.230700
													CHANNELS 3 Xrotation Yrotation Zrotation
													JOINT LeftHandIndex2
													{
														OFFSET 4.365700 0.000000 0.000000
														CHANNELS 3 Xrotation Yrotation Zrotation
														JOINT LeftHandIndex3
														{
															OFFSET 2.594000 0.000000 0.000000
															CHANNELS 3 Xrotation Yrotation Zrotation
															End Site
															{
																OFFSET 0 0 0
															}
														}
													}
												}
												JOINT LeftHandMiddle1
												{
													OFFSET 8.432300 0.000000 0.000000
													CHANNELS 3 Xrotation Yrotation Zrotation
													JOINT LeftHandMiddle2
													{
														OFFSET 4.555200 0.000000 0.000000
														CHANNELS 3 Xrotation Yrotation Zrotation
														JOINT LeftHandMiddle3
														{
															OFFSET 2.865300 0.000000 0.000000
															CHANNELS 3 Xrotation Yrotation Zrotation
															End Site
															{
																OFFSET 0 0 0
															}
														}
													}
												}
												JOINT LeftHandRing1
												{
													OFFSET 7.689400 -0.454700 -1.530700
													CHANNELS 3 Xrotation Yrotation Zrotation
													JOINT LeftHandRing2
													{
														OFFSET 4.269500 0.000000 0.000000
														CHANNELS 3 Xrotation Yrotation Zrotation
														JOINT LeftHandRing3
														{
															OFFSET 2.807300 0.000000 0.000000
															CHANNELS 3 Xrotation Yrotation Zrotation
															End Site
															{
																OFFSET 0 0 0
															}
														}
													}
												}
												JOINT LeftHandPinky1
												{
													OFFSET 6.579800 -1.192300 -2.874700
													CHANNELS 3 Xrotation Yrotation Zrotation
													JOINT LeftHandPinky2
													{
														OFFSET 3.404900 0.000000 0.000000
														CHANNELS 3 Xrotation Yrotation Zrotation
														JOINT LeftHandPinky3
														{
															OFFSET 2.167000 0.000000 0.000000
															CHANNELS 3 Xrotation Yrotation Zrotation
															End Site
															{
																OFFSET 0 0 0
															}
														}
													}
												}
											}
										}
									}
								}
								JOINT RightShoulder
								{
									OFFSET -1.212000 -7.475000 7.403000
									CHANNELS 3 Xrotation Yrotation Zrotation
									JOINT RightArm
									{
										OFFSET -12.730000 3.193000 -3.212000
										CHANNELS 3 Xrotation Yrotation Zrotation
										JOINT RightForeArm
										{
											OFFSET -28.700001 0.058900 0.134800
											CHANNELS 3 Xrotation Yrotation Zrotation
											JOINT RightHand
											{
												OFFSET -23.809999 0.048800 0.111800
												CHANNELS 3 Xrotation Yrotation Zrotation
												JOINT RightHandThumb1
												{
													OFFSET -0.331700 -0.854900 1.465200
													CHANNELS 3 Xrotation Yrotation Zrotation
													JOINT RightHandThumb2
													{
														OFFSET -3.394400 0.033800 4.045100
														CHANNELS 3 Xrotation Yrotation Zrotation
														JOINT RightHandThumb3
														{
															OFFSET -2.228600 0.022200 2.655900
															CHANNELS 3 Xrotation Yrotation Zrotation
															End Site
															{
																OFFSET 0 0 0
															}
														}
													}
												}
												JOINT RightHandIndex1
												{
													OFFSET -8.067200 -0.148300 2.256000
													CHANNELS 3 Xrotation Yrotation Zrotation
													JOINT RightHandIndex2
													{
														OFFSET -4.244400 0.000000 0.000000
														CHANNELS 3 Xrotation Yrotation Zrotation
														JOINT RightHandIndex3
														{
															OFFSET -2.518100 0.000000 0.000000
															CHANNELS 3 Xrotation Yrotation Zrotation
															End Site
															{
																OFFSET 0 0 0
															}
														}
													}
												}
												JOINT RightHandMiddle1
												{
													OFFSET -8.141100 0.000000 0.000000
													CHANNELS 3 Xrotation Yrotation Zrotation
													JOINT RightHandMiddle2
													{
														OFFSET -4.416900 0.000000 0.000000
														CHANNELS 3 Xrotation Yrotation Zrotation
														JOINT RightHandMiddle3
														{
															OFFSET -2.814700 0.000000 0.000000
															CHANNELS 3 Xrotation Yrotation Zrotation
															End Site
															{
																OFFSET 0 0 0
															}
														}
													}
												}
												JOINT RightHandRing1
												{
													OFFSET -7.423600 -0.524800 -1.560900
													CHANNELS 3 Xrotation Yrotation Zrotation
													JOINT RightHandRing2
													{
														OFFSET -4.128000 0.000000 0.000000
														CHANNELS 3 Xrotation Yrotation Zrotation
														JOINT RightHandRing3
														{
															OFFSET -2.724700 0.000000 0.000000
															CHANNELS 3 Xrotation Yrotation Zrotation
															End Site
															{
																OFFSET 0 0 0
															}
														}
													}
												}
												JOINT RightHandPinky1
												{
													OFFSET -6.307900 -1.287900 -2.847400
													CHANNELS 3 Xrotation Yrotation Zrotation
													JOINT RightHandPinky2
													{
														OFFSET -3.314800 0.000000 0.000000
														CHANNELS 3 Xrotation Yrotation Zrotation
														JOINT RightHandPinky3
														{
															OFFSET -2.102600 0.000000 0.000000
															CHANNELS 3 Xrotation Yrotation Zrotation
															End Site
															{
																OFFSET 0 0 0
															}
														}
													}
												}
											}
										}
									}
								}
								JOINT Neck
								{
									OFFSET 0.000000 4.703000 0.702900
									CHANNELS 3 Xrotation Yrotation Zrotation
									JOINT Neck1
									{
										OFFSET 0.000000 4.737000 0.414500
										CHANNELS 3 Xrotation Yrotation Zrotation
										JOINT Head
										{
											OFFSET 0.000000 4.747000 0.751800
											CHANNELS 3 Xrotation Yrotation Zrotation
											End Site
											{
												OFFSET 0 0 0
											}
										}
									}
								}
							}
						}
					}
				}
			}
		}
	}
}
MOTION
Frames: 7
Frame Time: 1.00000000
47.647907 92.050392 525.188049 -5.708758 4.061624 -2.362503 -19.696205 -5.399952 -0.742790 52.516045 -2.748106 0.879484 4.146057 3.259030 16.154535 -0.000000 0.000000 0.000000 1.571147 -3.461464 7.471804 6.238895 0.353551 0.033402 -3.149494 20.219658 -23.004660 0.000000 -0.000000 -0.000000 3.964530 0.280198 0.735541 0.473622 0.032241 0.742575 0.473234 0.039036 0.742475 0.472946 0.045830 0.742175 0.472758 0.052626 0.741875 0.472671 0.059421 0.741375 0.472683 0.066217 0.740775 0.240938 -0.618109 4.860558 3.945974 -13.125298 -80.650833 4.194908 -16.924898 1.295881 0.042326 3.475949 -1.575498 14.818739 25.604555 -38.590469 0.075792 7.309987 -0.193271 -0.137406 10.626645 -0.059264 3.694179 6.064022 -35.045551 1.519145 2.867272 -50.868279 0.367160 1.479872 -23.211369 2.198383 3.531849 -33.527702 -0.254529 -0.234189 -40.809200 -0.112505 -0.130382 -23.355154 -10.576389 13.730383 -28.926191 0.472579 3.532176 -41.968212 -0.122991 1.430830 -16.577301 -20.154226 19.453621 -14.789187 -0.513810 3.757405 -33.322758 -0.591298 2.705961 -24.158649 3.049285 1.132166 -1.749519 -1.933887 22.080278 68.561531 -12.147808 25.213541 5.035479 -1.679790 -5.936129 -16.166544 6.969363 -26.787153 36.085136 -4.597550 -4.363836 -4.205645 0.135328 -9.686756 0.065455 1.340678 -1.769771 29.665651 0.195547 0.190892 36.423958 0.094970 0.063922 15.033981 1.326235 -1.755973 31.713402 0.067999 0.264386 29.366364 0.015933 0.240531 19.342346 -8.676829 -10.508286 30.083397 0.107703 -0.166563 33.104050 0.023514 -0.097763 15.347523 -14.692433 -22.813412 21.165791 -0.001043 0.206617 28.131754 -0.003673 0.167224 19.334675 0.703735 -0.049242 0.876334 0.703735 -0.049242 0.876334 6.478068 -0.632681 -5.955792 
48.196758 92.155495 529.686707 -5.826437 1.690982 -2.296712 -22.566544 -5.792763 -0.817848 46.037510 -2.469277 0.638897 0.972903 4.073443 17.063255 0.000000 -0.000000 0.000000 4.901176 -2.219616 7.075368 3.848405 0.217691 0.025143 -3.664451 21.633001 -22.694056 -0.000000 0.000000 -0.000000 4.285448 0.736476 0.807492 0.532137 0.270613 0.677678 0.531570 0.277086 0.675478 0.531006 0.283459 0.673279 0.530643 0.289832 0.670779 0.530383 0.296106 0.668280 0.530123 0.302379 0.665580 0.556037 0.323706 4.557437 7.369240 -12.063271 -79.999863 5.360340 -14.733230 1.429746 0.099281 4.019385 -2.328930 14.620233 25.510405 -38.605316 0.000709 7.170513 -0.120240 -0.137133 10.772346 -0.059187 3.703974 6.135051 -34.689304 1.531329 2.877221 -51.082043 0.377063 1.500241 -23.516209 2.252338 3.670505 -33.109520 -0.256328 -0.232219 -41.250996 -0.112481 -0.130404 -23.344255 -10.450207 13.743069 -28.663153 0.490402 3.564933 -42.361347 -0.116476 1.442452 -16.697224 -20.032133 19.355171 -14.387008 -0.514988 3.755937 -33.298283 -0.590373 2.712135 -24.197374 2.501111 2.314306 -1.644158 -5.780482 22.408136 67.212486 -12.256413 29.069696 5.767999 -1.272876 -4.258386 -16.822914 6.566297 -26.743587 35.974987 -4.742176 -3.970113 -4.312350 0.135067 -9.644956 0.065484 1.309817 -1.891414 29.631157 0.194108 0.191542 36.741558 0.094746 0.064253 15.233788 1.322353 -1.751186 31.688782 0.065786 0.263407 29.821373 0.015612 0.238486 19.598152 -8.753927 -10.494787 30.207813 0.109219 -0.168097 33.320965 0.024705 -0.098523 15.882320 -14.800616 -22.544182 21.405912 -0.002341 0.206606 28.491760 -0.004088 0.166156 19.605177 0.661422 0.017739 0.765549 0.661522 0.017742 0.765649 5.930912 -0.173996 -5.973717 
48.804249 92.050293 534.111938 -5.388309 0.172207 -2.644257 -24.676781 -6.672015 -0.050595 36.947346 -2.036059 0.357525 -0.406145 5.082632 17.108261 -0.000000 0.000000 0.000000 7.411576 -1.361471 7.027145 1.925673 0.108684 0.014392 -4.243276 22.400421 -22.445749 -0.000000 -0.000000 0.000000 4.299436 1.018529 1.094158 0.541699 0.397547 0.668486 0.541252 0.403412 0.665286 0.540908 0.409277 0.661987 0.540666 0.415041 0.658488 0.540626 0.420708 0.654988 0.540588 0.426372 0.651289 0.706220 1.091358 4.346680 11.169342 -10.560673 -79.620399 6.218314 -14.253626 1.595711 0.054040 3.962962 -1.719752 14.896386 25.586079 -38.643406 0.102099 7.498263 -0.220687 -0.136532 11.229643 -0.058355 3.895726 6.148697 -35.105793 1.557731 2.898394 -51.543190 0.393827 1.520887 -23.863972 2.236467 3.629428 -33.231686 -0.257042 -0.231428 -41.427597 -0.112751 -0.130170 -23.463354 -10.412761 13.679357 -28.814484 0.498467 3.579623 -42.537979 -0.114785 1.446477 -16.723562 -19.975431 19.185751 -14.528852 -0.512657 3.764437 -33.382896 -0.591752 2.721181 -24.262825 1.902925 3.315465 -1.662358 -9.333081 22.594728 65.915596 -11.886074 32.751152 6.186390 -0.977159 -3.232381 -16.804728 6.473952 -26.769466 36.073524 -4.821257 -3.972982 -4.385783 0.134934 -9.715055 0.065779 1.145882 -1.969069 29.437788 0.193976 0.190975 36.686962 0.094829 0.064130 15.159582 1.261775 -1.662963 31.539789 0.066137 0.261779 29.720367 0.015706 0.236414 19.757946 -8.958610 -10.341122 29.974052 0.109919 -0.170215 33.252766 0.025180 -0.099289 16.020626 -14.950203 -22.594604 21.104874 -0.002902 0.206599 28.647356 -0.003804 0.165105 19.636183 0.654513 0.080839 0.659458 0.654513 0.080839 0.659458 5.235004 0.235622 -6.146453 
49.334949 91.705200 538.721680 -4.996022 -0.819077 -3.324432 -25.650679 -7.313689 1.491109 26.145672 -1.471154 0.117278 -0.894177 4.887623 17.741724 -0.000000 0.000000 -0.000000 9.167593 -1.036513 7.336492 1.830675 0.103341 0.013793 -5.424850 22.910395 -22.274027 -0.000000 0.000000 0.000000 4.291894 1.236073 1.496180 0.520814 0.473444 0.704994 0.520673 0.479407 0.701095 0.520635 0.485270 0.697095 0.520700 0.491033 0.692896 0.520968 0.496698 0.688697 0.521339 0.502262 0.684297 0.737776 1.648968 4.335309 14.677832 -9.291517 -79.609879 6.210685 -14.184644 1.585773 0.007020 4.620859 -0.900516 14.836314 25.373068 -38.812531 0.383790 7.262013 -0.488713 -0.136544 11.101748 -0.058941 3.992849 6.201197 -35.243362 1.583333 2.918684 -51.988205 0.410104 1.538909 -24.175016 2.203487 3.597096 -33.096569 -0.258012 -0.230346 -41.668209 -0.113166 -0.129810 -23.645956 -10.483689 13.605672 -28.509842 0.513550 3.606670 -42.864033 -0.106155 1.462136 -16.896235 -19.923250 19.023201 -14.129282 -0.506282 3.799751 -33.674919 -0.589924 2.727084 -24.358969 1.411519 4.051929 -1.614424 -12.471485 22.524010 64.830559 -11.209196 36.138409 6.305059 -0.714697 -2.242367 -17.298662 6.463860 -26.791731 36.058479 -4.831201 -4.033599 -4.400074 0.134581 -9.597155 0.065623 1.023124 -1.763760 29.735895 0.194604 0.189759 36.424965 0.094895 0.064034 15.101181 1.114529 -1.406333 31.812370 0.067990 0.259758 29.287560 0.016207 0.234310 19.821842 -9.129374 -10.300435 30.275570 0.111040 -0.171976 33.341778 0.025411 -0.099969 16.040030 -15.070688 -22.553211 21.223404 -0.003298 0.206593 28.757065 -0.003076 0.164066 19.512173 0.615458 0.121152 0.553569 0.615458 0.121152 0.553569 4.753677 0.492400 -6.281713 
49.887413 91.164047 543.730713 -5.181290 -1.185174 -4.340961 -24.433197 -7.569442 3.609095 14.466432 -0.821083 -0.015520 -4.146924 2.876362 18.314455 -0.000000 0.000000 0.000000 10.384476 -2.055542 7.866843 4.005609 0.226692 0.024776 -7.331417 23.774374 -21.745260 0.000000 -0.000000 -0.000000 4.320746 1.515190 2.096161 0.539665 0.568225 0.787803 0.540031 0.573979 0.783295 0.540599 0.579716 0.778677 0.541279 0.585363 0.773969 0.542163 0.590901 0.769069 0.543159 0.596341 0.764161 0.596259 2.100297 4.728153 18.114082 -8.325413 -79.861794 6.190121 -14.255667 1.594452 0.051116 5.117739 -1.261165 14.790360 25.461342 -38.764610 0.419314 7.066439 -0.520516 -0.136483 10.911207 -0.059326 3.928381 6.280479 -35.105896 1.580981 2.912958 -51.948540 0.400641 1.527022 -23.982174 2.210436 3.629572 -32.957104 -0.257490 -0.230929 -41.538689 -0.112905 -0.130037 -23.530897 -10.554420 13.548462 -28.350897 0.509770 3.599771 -42.780132 -0.107937 1.459268 -16.816471 -19.943686 19.093094 -13.981117 -0.510716 3.773128 -33.449005 -0.591081 2.714569 -24.233795 1.081557 4.623886 -1.663692 -15.322207 22.051470 63.683590 -10.246101 38.588322 6.041391 -0.614245 -1.901000 -17.347036 6.446902 -26.782476 36.063194 -4.914175 -4.019991 -4.476420 0.133391 -9.648262 0.066141 1.072813 -1.779880 29.841772 0.193083 0.189960 36.754501 0.094677 0.064355 15.295541 1.110641 -1.385585 32.060577 0.065886 0.257200 29.588984 0.018198 0.227449 19.939280 -9.101351 -10.314355 30.667398 0.112582 -0.173395 33.607971 0.025384 -0.099399 16.111387 -15.032221 -22.452522 21.713356 -0.003711 0.206586 28.871567 -0.002607 0.162076 19.594810 0.606193 0.098637 0.498629 0.606193 0.098637 0.498629 4.837341 0.276886 -6.302363 
50.672523 90.706848 548.995911 -4.724639 -1.157347 -4.641392 -24.586195 -7.396187 4.409685 8.358104 -0.474213 -0.035915 -7.579493 1.618645 16.688614 0.000000 -0.000000 0.000000 10.484263 -3.401376 7.531873 7.119327 0.403645 0.033906 -9.254956 24.409895 -20.944763 0.000000 -0.000000 0.000000 3.886653 1.634937 2.298379 0.473025 0.618897 0.799737 0.473792 0.624151 0.795156 0.474660 0.629389 0.790574 0.475634 0.634426 0.785812 0.476814 0.640213 0.781157 0.478193 0.645054 0.776294 0.484356 2.454856 4.860001 19.721252 -7.461131 -79.956017 6.438148 -13.237888 1.556559 0.157997 5.382597 -2.299720 14.657530 25.518797 -38.707275 0.331916 6.907145 -0.435499 -0.136301 10.846771 -0.059356 3.798822 6.474673 -34.663273 1.566263 2.901026 -51.687714 0.388542 1.509985 -23.701818 2.232412 3.710640 -32.627907 -0.256186 -0.232375 -41.216003 -0.112403 -0.130470 -23.310278 -10.630157 13.542969 -28.087656 0.494021 3.571307 -42.437477 -0.112213 1.449003 -16.681862 -19.969561 19.143591 -13.714970 -0.518853 3.724007 -33.037300 -0.591957 2.682415 -23.974974 0.894049 4.993546 -1.438011 -17.006651 21.273867 62.827862 -9.249695 40.172436 5.575882 -0.366809 -1.059810 -17.754480 6.678757 -26.971640 36.085468 -5.029330 -4.272897 -4.601378 0.132332 -9.775792 0.066845 1.100318 -1.664496 29.963583 0.191741 0.190034 37.041237 0.094588 0.064486 15.374506 1.083585 -1.325680 32.369831 0.063453 0.254952 29.978914 0.019844 0.221107 20.109930 -9.026886 -10.304801 31.191525 0.114858 -0.173591 34.221165 0.025404 -0.098590 16.247225 -14.916679 -22.486652 22.509014 -0.004847 0.206562 29.186674 -0.002695 0.160272 19.852909 0.647844 0.057521 0.485623 0.647944 0.057521 0.485623 4.928818 0.004740 -6.147832 
51.786991 90.339676 554.969666 -4.653549 -1.137991 -4.432461 -24.748974 -7.722359 3.965775 7.912439 -0.448833 -0.033235 -5.757259 1.780716 16.866493 -0.000000 0.000000 0.000000 11.073572 -4.261251 6.429319 10.177812 0.577783 0.033793 -10.791493 24.696270 -19.846390 -0.000000 -0.000000 -0.000000 3.478353 1.715587 2.265834 0.436155 0.676648 0.775994 0.437047 0.681054 0.771622 0.438069 0.685360 0.767177 0.439221 0.689569 0.762705 0.440548 0.693678 0.758205 0.442076 0.697763 0.753633 0.493606 2.793021 5.005877 20.306854 -6.858794 -80.126144 7.104623 -12.591167 1.641645 0.231664 5.502325 -3.015336 14.721903 25.635963 -38.629848 0.236948 6.919589 -0.346064 -0.136129 10.778701 -0.059344 3.754978 6.589759 -34.445404 1.548842 2.890118 -51.374577 0.378632 1.496229 -23.456209 2.265595 3.776718 -32.538589 -0.254881 -0.233806 -40.895195 -0.111893 -0.130909 -23.086422 -10.631628 13.609235 -28.094780 0.478093 3.542235 -42.088539 -0.118938 1.435048 -16.493011 -19.984640 19.268766 -13.828536 -0.526600 3.675202 -32.627853 -0.592632 2.658153 -23.778637 0.994936 5.086941 -1.460968 -17.606195 20.594439 62.704494 -9.642565 40.485085 5.869401 -0.250049 -0.687612 -17.780447 6.403355 -26.787352 36.045074 -5.070548 -4.190476 -4.633669 0.131250 -9.847328 0.067423 1.035608 -1.546108 29.880131 0.191407 0.189137 37.034805 0.094375 0.064797 15.563109 1.038906 -1.263303 32.201012 0.062685 0.252654 29.991682 0.021486 0.215156 20.255865 -9.075026 -10.365147 30.982780 0.115214 -0.174364 34.378159 0.025322 -0.097614 16.354969 -14.956988 -22.546965 22.188391 -0.005813 0.206537 29.454859 -0.002345 0.158706 19.930147 0.728193 0.009178 0.490836 0.728193 0.009179 0.490909 5.338170 -0.268943 -5.917286 
